<svg width="65" height="65" viewBox="0 0 65 65" fill="none" xmlns="http://www.w3.org/2000/svg">
<g clip-path="url(#clip0_59_29)">
<path d="M14.02 40.22L14.11 35.63C14.11 34.07 13.6 32.54 12.58 31.04C11.62 29.54 9.25 25.19 5.47005 17.99C1.69005 10.79 -0.199951 6.74 -0.199951 5.84C-0.199951 4.88 0.19005 4.04 0.97005 3.32C1.75005 2.54 2.50005 2.15 3.22005 2.15C4.00005 2.15 4.90005 2.84 5.92005 4.22C7.00005 5.6 9.07 9.23 12.13 15.11C15.25 20.99 17.0501 24.23 17.5301 24.83C23.2901 14.63 27.9101 7.43 31.3901 3.22999C32.2301 2.45 32.89 2.06 33.37 2.06C33.91 2.06 34.3001 2.12 34.5401 2.23999C35.98 2.83999 36.7001 3.65 36.7001 4.67C36.7001 5.62999 36.46 6.46999 35.98 7.19C35.5 7.91 34.1801 9.8 32.0201 12.86C28.84 17.3 26.08 21.8 23.74 26.36C21.46 30.86 20.32 33.62 20.32 34.64V51.11L20.59 58.31C20.59 59.63 20.2301 60.56 19.51 61.1C18.7901 61.58 17.89 61.82 16.81 61.82C15.79 61.82 15.1 61.25 14.74 60.11C14.38 58.97 14.17 57.47 14.11 55.61C14.05 53.75 14.02 51.02 14.02 47.42V40.22Z" fill="black"/>
<path d="M36.73 62.03C34.69 62.03 32.7101 58.07 30.7901 50.15C28.9301 42.17 28 33.23 28 23.33C28 22.31 28.42 21.53 29.26 20.99C30.16 20.39 30.97 20.09 31.69 20.09C32.41 20.09 32.9801 20.33 33.4001 20.81C33.8801 21.23 34.12 21.8 34.12 22.52C34.12 31.88 35.71 40.88 38.89 49.52C39.37 48.8 40.12 47.36 41.14 45.2C42.16 42.98 43.12 41.36 44.02 40.34C44.92 39.32 46 38.81 47.26 38.81C48.52 38.81 49.8401 39.74 51.2201 41.6C52.6001 43.46 53.77 45.47 54.73 47.63C55.7501 49.73 56.32 50.84 56.44 50.96C58.06 45.92 58.87 41.24 58.87 36.92L58.3301 23.24C58.2701 22.34 58.69 21.59 59.59 20.99C60.49 20.33 61.36 20 62.2 20C63.94 20 64.8101 23.39 64.8101 30.17V35.12C64.8101 43.16 63.5801 50.33 61.1201 56.63C59.8001 60.23 58.1501 62.03 56.1701 62.03C55.0301 62.03 53.9801 61.31 53.02 59.87C52.06 58.37 50.98 56.27 49.78 53.57C48.58 50.87 47.6501 49.01 46.9901 47.99L44.2901 53.3C43.2701 55.4 42.4901 56.93 41.9501 57.89C41.4101 58.79 40.66 59.72 39.7001 60.68C38.7401 61.58 37.75 62.03 36.73 62.03Z" fill="black"/>
</g>
<defs>
<clipPath id="clip0_59_29">
<rect width="65" height="65" fill="white"/>
</clipPath>
</defs>
</svg>
